<svg xmlns="http://www.w3.org/2000/svg" viewBox="0 0 24 24" fill="white"><path d="M12 2.2c3.2 0 3.6 0 4.9.07 1.2.06 1.9.26 2.3.44a4.6 4.6 0 0 1 1.7 1.1 4.6 4.6 0 0 1 1.1 1.7c.18.4.38 1.1.44 2.3.07 1.3.07 1.7.07 4.9s0 3.6-.07 4.9c-.06 1.2-.26 1.9-.44 2.3a4.6 4.6 0 0 1-1.1 1.7 4.6 4.6 0 0 1-1.7 1.1c-.4.18-1.1.38-2.3.44-1.3.07-1.7.07-4.9.07s-3.6 0-4.9-.07c-1.2-.06-1.9-.26-2.3-.44a4.6 4.6 0 0 1-1.7-1.1 4.6 4.6 0 0 1-1.1-1.7c-.18-.4-.38-1.1-.44-2.3C2.2 15.6 2.2 15.2 2.2 12s0-3.6.07-4.9c.06-1.2.26-1.9.44-2.3a4.6 4.6 0 0 1 1.1-1.7 4.6 4.6 0 0 1 1.7-1.1c.4-.18 1.1-.38 2.3-.44C8.4 2.2 8.8 2.2 12 2.2zm0-2.2C8.7 0 8.3 0 7 .07c-1.3.07-2.2.3-3 .6a6.9 6.9 0 0 0-2.5 1.6A6.9 6.9 0 0 0 .6 4.7c-.3.8-.5 1.7-.6 3C0 8.3 0 8.7 0 12s0 3.7.07 5c.07 1.3.3 2.2.6 3a6.9 6.9 0 0 0 1.6 2.5 6.9 6.9 0 0 0 2.5 1.6c.8.3 1.7.5 3 .6 1.3.07 1.7.07 5 .07s3.7 0 5-.07c1.3-.07 2.2-.3 3-.6a6.9 6.9 0 0 0 2.5-1.6 6.9 6.9 0 0 0 1.6-2.5c.3-.8.5-1.7.6-3 .07-1.3.07-1.7.07-5s0-3.7-.07-5c-.07-1.3-.3-2.2-.6-3a6.9 6.9 0 0 0-1.6-2.5A6.9 6.9 0 0 0 19 0.6c-.8-.3-1.7-.5-3-.6C15.7 0 15.3 0 12 0z"/><path d="M12 5.9a6.1 6.1 0 1 0 0 12.2 6.1 6.1 0 0 0 0-12.2zm0 10A3.9 3.9 0 1 1 12 8.1a3.9 3.9 0 0 1 0 7.8zm6.4-11.1a1.44 1.44 0 1 1-2.88 0 1.44 1.44 0 0 1 2.88 0z"/></svg>
