<svg xmlns="http://www.w3.org/2000/svg" viewBox="0 0 24 24" fill="white"><path d="M22.46 6c-.77.35-1.6.58-2.46.69a4.27 4.27 0 0 0 1.88-2.36 8.59 8.59 0 0 1-2.71 1.04 4.23 4.23 0 0 0-7.2 3.86A12 12 0 0 1 3.15 4.63a4.23 4.23 0 0 0 1.31 5.65 4.2 4.2 0 0 1-1.92-.53v.05c0 2.07 1.48 3.8 3.44 4.19-.36.1-.74.15-1.13.15-.28 0-.55-.03-.81-.08.55 1.73 2.15 2.99 4.04 3.02a8.5 8.5 0 0 1-5.27 1.82c-.34 0-.68-.02-1.01-.06A12.03 12.03 0 0 0 8.29 21c7.55 0 11.68-6.26 11.68-11.68 0-.18-.01-.35-.02-.53.8-.58 1.5-1.3 2.05-2.12z"/></svg>
