<svg xmlns="http://www.w3.org/2000/svg" viewBox="0 0 24 24" fill="white"><path d="M20.52 3.48A11.97 11.97 0 0012 0C5.37 0 0 5.37 0 12c0 2.12.55 4.13 1.5 5.88L0 24l6.33-1.66A11.92 11.92 0 0012 24c6.63 0 12-5.37 12-12 0-3.2-1.25-6.1-3.48-8.52zM12 22c-1.74 0-3.42-.45-4.88-1.24l-.35-.2-3.76 1 1-3.68-.22-.36A9.96 9.96 0 012 12c0-5.52 4.48-10 10-10s10 4.48 10 10-4.48 10-10 10zm5.71-7.74c-.2-.1-1.18-.58-1.36-.64-.18-.07-.31-.1-.44.1-.13.2-.5.64-.61.77-.11.13-.22.15-.42.05-.2-.1-.84-.32-1.6-.99-.59-.53-.99-1.18-1.11-1.38-.12-.2-.01-.31.09-.41.09-.09.2-.23.3-.35.1-.13.13-.22.2-.36.07-.13.03-.26-.02-.36-.05-.1-.44-1.06-.6-1.45-.16-.38-.33-.33-.44-.33-.11 0-.24-.01-.36-.01-.13 0-.34.05-.52.26-.18.2-.71.69-.71 1.68s.73 1.95.83 2.09c.1.13 1.43 2.2 3.46 3.08.48.21.86.33 1.15.43.48.15.92.13 1.27.08.39-.06 1.18-.48 1.35-.94.17-.46.17-.86.12-.94-.05-.08-.18-.13-.38-.23z"/></svg>
